# xmcd CD database file
#
# Track frame offsets:
#	150
#	18581
#	40822
#	61578
#	81662
#	101988
#	118291
#	139867
#	159402
#	176967
#	195180
#	199479
#	218406
#	237816
#	255843
#	273854
#
# Disc length: 3889 seconds
#
# Revision: 0
# Processed by: cddbd v1.5.1PL0 Copyright (c) Steve Scherf et al.
# Submitted via: CDex 1.51
#
DISCID=df0f2f10
DTITLE=Brad Paisley - Time Well Waisted
DYEAR=2005
DGENRE=Country
TTITLE0=The World
TTITLE1=Alcohol
TTITLE2=Waitin' On A Woman
TTITLE3=I'll Take You Back
TTITLE4=She's Everything
TTITLE5=You Need A Man Around Here
TTITLE6=Out In The Parkin' Lot
TTITLE7=Rainin' You
TTITLE8=Flowers
TTITLE9=Love Is Never-Ending
TTITLE10=The Uncloudy Day
TTITLE11=When I Get Where I'm Going
TTITLE12=Easy Money
TTITLE13=Time Warp
TTITLE14=Time Well Waisted
TTITLE15=Bonus Comography
EXTD=YEAR: 2005
EXTT0=
EXTT1=
EXTT2=
EXTT3=
EXTT4=
EXTT5=
EXTT6=
EXTT7=
EXTT8=
EXTT9=
EXTT10=
EXTT11=
EXTT12=
EXTT13=
EXTT14=
EXTT15=
PLAYORDER=
